<svg width="83" height="70" viewBox="0 0 83 70" fill="none" xmlns="http://www.w3.org/2000/svg">
<path d="M18.8 69.4C12.6667 69.4 8 67.0667 4.8 62.4C1.6 57.7333 6.85453e-07 51.3333 6.85453e-07 43.2C6.85453e-07 33.7333 2.33333 25.4 7 18.2C11.6667 11 18.8 5.06666 28.4 0.399994L34.8 13.2C28.8 16.1333 24.2667 19.6667 21.2 23.8C18.2667 27.8 16.8 32.7333 16.8 38.6C17.0667 38.4667 17.4 38.4 17.8 38.4C18.2 38.4 18.5333 38.4 18.8 38.4C23.0667 38.4 26.6667 39.7333 29.6 42.4C32.6667 44.9333 34.2 48.4667 34.2 53C34.2 57.9333 32.7333 61.9333 29.8 65C26.8667 67.9333 23.2 69.4 18.8 69.4ZM66.2 69.4C60.0667 69.4 55.4 67.0667 52.2 62.4C49 57.7333 47.4 51.3333 47.4 43.2C47.4 33.7333 49.7333 25.4 54.4 18.2C59.0667 11 66.2 5.06666 75.8 0.399994L82.2 13.2C76.2 16.1333 71.6667 19.6667 68.6 23.8C65.6667 27.8 64.2 32.7333 64.2 38.6C64.4667 38.4667 64.8 38.4 65.2 38.4C65.6 38.4 65.9333 38.4 66.2 38.4C70.4667 38.4 74.0667 39.7333 77 42.4C80.0667 44.9333 81.6 48.4667 81.6 53C81.6 57.9333 80.1333 61.9333 77.2 65C74.2667 67.9333 70.6 69.4 66.2 69.4Z" fill="#7548FE"/>
</svg>
